HIERARCHY
ROOT Hips
{
	OFFSET 0.000000 0.000000 0.000000
	CHANNELS 6 Xposition Yposition Zposition Zrotation Yrotation Xrotation 
	JOINT LHipJoint
	{
		OFFSET 0.000000 0.000000 0.000000
		CHANNELS 3 Zrotation Yrotation Xrotation
		JOINT LeftUpLeg
		{
			OFFSET 1.363060 -1.794630 0.839290
			CHANNELS 3 Zrotation Yrotation Xrotation
			JOINT LeftLeg
			{
				OFFSET 2.448110 -6.726130 0.000000
				CHANNELS 3 Zrotation Yrotation Xrotation
				JOINT LeftFoot
				{
					OFFSET 2.562200 -7.039590 0.000000
					CHANNELS 3 Zrotation Yrotation Xrotation
					JOINT LeftToeBase
					{
						OFFSET 0.157640 -0.433110 2.322550
						CHANNELS 3 Zrotation Yrotation Xrotation
						End Site
						{
							OFFSET 0.000000 0.000000 0.000000
						}
					}
				}
			}
		}
	}
	JOINT RHipJoint
	{
		OFFSET 0.000000 0.000000 0.000000
		CHANNELS 3 Zrotation Yrotation Xrotation
		JOINT RightUpLeg
		{
			OFFSET -1.305520 -1.794630 0.839290
			CHANNELS 3 Zrotation Yrotation Xrotation
			JOINT RightLeg
			{
				OFFSET -2.542530 -6.985550 0.000000
				CHANNELS 3 Zrotation Yrotation Xrotation
				JOINT RightFoot
				{
					OFFSET -2.568260 -7.056230 0.000000
					CHANNELS 3 Zrotation Yrotation Xrotation
					JOINT RightToeBase
					{
						OFFSET -0.164730 -0.452590 2.363150
						CHANNELS 3 Zrotation Yrotation Xrotation
						End Site
						{
							OFFSET 0.000000 0.000000 0.000000
						}
					}
				}
			}
		}
	}
	JOINT LowerBack
	{
		OFFSET 0.000000 0.000000 0.000000
		CHANNELS 3 Zrotation Yrotation Xrotation
		JOINT Spine
		{
			OFFSET 0.028270 2.035590 -0.193380
			CHANNELS 3 Zrotation Yrotation Xrotation
			JOINT Spine1
			{
				OFFSET 0.056720 2.048850 -0.042750
				CHANNELS 3 Zrotation Yrotation Xrotation
				JOINT Neck
				{
					OFFSET 0.000000 0.000000 0.000000
					CHANNELS 3 Zrotation Yrotation Xrotation
					JOINT Neck1
					{
						OFFSET -0.054170 1.746240 0.172020
						CHANNELS 3 Zrotation Yrotation Xrotation
						JOINT Head
						{
							OFFSET 0.104070 1.761360 -0.123970
							CHANNELS 3 Zrotation Yrotation Xrotation
							End Site
							{
								OFFSET 0.000000 0.000000 0.000000
							}
						}
					}
				}
				JOINT LeftShoulder
				{
					OFFSET 0.000000 0.000000 0.000000
					CHANNELS 3 Zrotation Yrotation Xrotation
					JOINT LeftArm
					{
						OFFSET 3.362410 1.200890 -0.311210
						CHANNELS 3 Zrotation Yrotation Xrotation
						JOINT LeftForeArm
						{
							OFFSET 4.983000 -0.000000 -0.000000
							CHANNELS 3 Zrotation Yrotation Xrotation
							JOINT LeftHand
							{
								OFFSET 3.483560 -0.000000 -0.000000
								CHANNELS 3 Zrotation Yrotation Xrotation
								JOINT LeftFingerBase
								{
									OFFSET 0.000000 0.000000 0.000000
									CHANNELS 3 Zrotation Yrotation Xrotation
									JOINT LeftHandIndex1
									{
										OFFSET 0.715260 -0.000000 -0.000000
										CHANNELS 3 Zrotation Yrotation Xrotation
										End Site
										{
											OFFSET 0.000000 0.000000 0.000000
										}
									}
								}
								JOINT LThumb
								{
									OFFSET 0.000000 0.000000 0.000000
									CHANNELS 3 Zrotation Yrotation Xrotation
									End Site
									{
										OFFSET 0.000000 0.000000 0.000000
									}
								}
							}
						}
					}
				}
				JOINT RightShoulder
				{
					OFFSET 0.000000 0.000000 0.000000
					CHANNELS 3 Zrotation Yrotation Xrotation
					JOINT RightArm
					{
						OFFSET -3.136600 1.374050 -0.404650
						CHANNELS 3 Zrotation Yrotation Xrotation
						JOINT RightForeArm
						{
							OFFSET -5.241900 -0.000000 -0.000000
							CHANNELS 3 Zrotation Yrotation Xrotation
							JOINT RightHand
							{
								OFFSET -3.444170 -0.000000 -0.000000
								CHANNELS 3 Zrotation Yrotation Xrotation
								JOINT RightFingerBase
								{
									OFFSET 0.000000 0.000000 0.000000
									CHANNELS 3 Zrotation Yrotation Xrotation
									JOINT RightHandIndex1
									{
										OFFSET -0.622530 -0.000000 -0.000000
										CHANNELS 3 Zrotation Yrotation Xrotation
										End Site
										{
											OFFSET 0.000000 0.000000 0.000000
										}
									}
								}
								JOINT RThumb
								{
									OFFSET 0.000000 0.000000 0.000000
									CHANNELS 3 Zrotation Yrotation Xrotation
									End Site
									{
										OFFSET 0.000000 0.000000 0.000000
									}
								}
							}
						}
					}
				}
			}
		}
	}
}
MOTION
Frames: 5
Frame Time: 0.008333
24.277794 18.866458 47.520652 -3.469431 -5.143022 7.028130 -18.833242 6.844801 6.646474 2.095365 0.020749 -15.732844 -2.757529 -21.532398 24.248348 -14.460257 45.251894 -15.525024 -0.166035 0.223193 -1.258854 13.084476 -1.833991 3.519922 -2.088520 0.393053 -34.956376 27.404364 25.290438 55.077543 25.047791 -49.040271 -27.352853 -0.067696 -0.212808 -2.797763 4.112368 -1.997752 1.093521 1.012612 -2.134520 -4.234312 0.007748 -2.185125 -1.319522 -2.412127 0.315978 -4.151318 6.846325 -2.977923 15.071672 -2.725912 -1.568678 -16.595726 1.895346 -21.321757 -1.010016 -74.716120 -34.990933 42.567186 23.936711 -22.979434 -12.257123 11.414627 -0.696997 -1.910982 -3.075134 -0.966512 0.000000 0.000000 0.000000 0.000000 0.000000 0.000000 0.000000 0.403614 18.684823 4.257407 81.160666 39.067074 34.356605 -10.121354 40.189630 9.495577 -8.809039 3.029088 14.087991 2.290843 0.722513 0.000000 0.000000 0.000000 0.000000 0.000000 0.000000 0.000000
24.292440 18.863596 47.552371 -3.587660 -5.349422 7.151716 -18.903616 6.830749 6.814189 2.439159 -0.935801 -15.046858 -1.551882 -19.308594 22.137244 -14.259660 44.318517 -14.521035 -0.269286 0.411382 -2.061034 13.115482 -1.714980 3.535221 -2.223269 0.885679 -34.480639 23.706315 25.711344 50.692036 26.170928 -44.563546 -27.058887 -0.077433 -0.250291 -2.432665 4.248179 -2.093695 0.904181 1.025217 -2.249232 -4.236700 0.121134 -2.301822 -1.085077 -2.488380 0.301828 -4.256825 6.826249 -2.835637 15.025474 -2.446429 -1.431620 -16.195854 1.521645 -21.246345 -0.874509 -75.157679 -34.564394 43.236621 23.211021 -22.015723 -11.693114 11.052275 -0.598775 -1.996960 -2.964219 -0.956034 0.000000 0.000000 0.000000 0.000000 0.000000 0.000000 0.000000 0.948511 18.480582 4.486015 80.751604 38.174928 35.146810 -10.838082 38.471700 8.933674 -10.074763 3.504639 13.559604 2.742246 0.620426 0.000000 0.000000 0.000000 0.000000 0.000000 0.000000 0.000000
24.304476 18.853924 47.584783 -3.617925 -5.654806 7.168308 -19.005252 6.898104 6.944437 2.625742 -1.550979 -14.381200 -0.328247 -16.802199 19.976264 -13.987909 42.968861 -13.421170 -0.175692 0.327336 -1.397084 13.209906 -1.694599 3.502857 -2.315522 1.415631 -33.947102 18.880153 25.114928 45.435801 25.595741 -39.553236 -24.377119 -0.135807 -0.462502 -2.350003 4.301455 -2.120530 0.856626 1.030315 -2.284350 -4.236702 0.242818 -2.342046 -0.866810 -2.521638 0.349455 -4.328240 6.990448 -2.605091 15.052830 -3.008797 -1.172811 -16.179483 1.095543 -21.331310 -0.690229 -75.387259 -34.251473 43.562303 21.987077 -21.356657 -11.151811 10.989257 -0.452129 -2.242753 -2.993751 -0.951548 0.000000 0.000000 0.000000 0.000000 0.000000 0.000000 0.000000 1.518979 18.452382 4.632879 80.045799 36.968417 35.755672 -11.660459 36.682245 8.714671 -9.078661 3.375159 13.863827 2.378412 0.589830 0.000000 0.000000 0.000000 0.000000 0.000000 0.000000 0.000000
24.315943 18.841833 47.615368 -3.639531 -5.929312 7.076556 -19.109233 6.960067 7.069527 2.905112 -2.430144 -13.519265 0.528188 -14.636737 18.190123 -13.895887 42.115872 -12.638382 -0.332803 0.270337 -2.377747 13.296978 -1.648655 3.481240 -2.965128 2.807536 -32.899726 13.435738 22.595238 38.916588 24.849408 -34.526647 -20.735995 -0.097006 -0.320755 -2.835502 4.367286 -2.130821 0.951005 1.033058 -2.301658 -4.233678 0.287529 -2.357504 -0.764724 -2.564272 0.352796 -4.281077 7.054939 -2.379711 15.102836 -3.027952 -0.949558 -16.561580 0.689420 -21.530228 -0.476031 -75.646138 -33.855729 44.035793 21.098571 -20.626868 -10.465129 11.119434 -0.460947 -2.239894 -3.063990 -0.896589 0.000000 0.000000 0.000000 0.000000 0.000000 0.000000 0.000000 1.997762 18.603330 4.613576 79.395391 35.501508 35.314180 -11.965278 35.132707 8.422429 -10.206017 3.910497 13.230865 2.801452 0.426978 0.000000 0.000000 0.000000 0.000000 0.000000 0.000000 0.000000
24.326139 18.819427 47.643734 -3.718607 -6.141448 7.102326 -19.194275 7.000608 7.119398 3.018916 -2.651785 -13.084605 1.249927 -13.310272 17.052441 -14.428993 41.188501 -12.342509 -0.347798 0.288649 -2.487485 13.375232 -1.512907 3.484117 -3.557554 4.360035 -32.073868 7.902847 18.275460 32.272237 23.203353 -28.951140 -16.142911 -0.207614 -0.729138 -2.853999 4.454033 -2.224872 0.954244 1.044788 -2.407199 -4.234395 0.383126 -2.469997 -0.513112 -2.618652 0.383575 -4.396662 7.152649 -2.160693 15.149305 -3.128352 -0.718166 -16.725538 0.211428 -21.584288 -0.266859 -75.545018 -33.721837 43.752413 19.530411 -20.187325 -9.391726 12.040389 -0.422132 -2.142417 -3.450442 -0.827424 0.000000 0.000000 0.000000 0.000000 0.000000 0.000000 0.000000 2.610831 18.483547 4.858141 78.540830 34.522856 35.347530 -12.056924 33.679234 7.907105 -11.295842 4.423279 12.319562 3.224029 0.263800 0.000000 0.000000 0.000000 0.000000 0.000000 0.000000 0.000000
